<svg width="24" height="24" viewBox="0 0 24 24" fill="none" xmlns="http://www.w3.org/2000/svg">
<path fill-rule="evenodd" clip-rule="evenodd" d="M15.6974 3.43475L16.5637 4.30073C16.8484 4.60083 16.9908 4.95132 16.9908 5.35141C16.9908 5.75974 16.8484 6.10607 16.5637 6.39096L10.9508 12.0036L16.5635 17.6163C16.8483 17.9011 16.9907 18.2475 16.9907 18.6557C16.9907 19.056 16.8483 19.4064 16.5635 19.7065L15.6972 20.5612C15.4048 20.8538 15.0544 21 14.6463 21C14.2306 21 13.8842 20.8536 13.607 20.5612L6.08891 13.0431C5.79646 12.7658 5.65012 12.4195 5.65012 12.0037C5.65012 11.5956 5.79642 11.2453 6.08891 10.9529L13.607 3.43479C13.892 3.14991 14.2384 3.00736 14.6463 3.00736C15.0468 3.00732 15.397 3.14987 15.6974 3.43475Z" fill="#252525"/>
</svg>
