<svg width="24" height="24" viewBox="0 0 24 24" fill="none" xmlns="http://www.w3.org/2000/svg">
<path fill-rule="evenodd" clip-rule="evenodd" d="M12 0C5.3828 0 0 5.3828 0 12C0 18.6172 5.3828 24 12 24C18.6172 24 24 18.6172 24 12C24 5.3828 18.6172 0 12 0ZM12 22.141C6.40898 22.141 1.85902 17.591 1.85902 12C1.85902 6.40898 6.40898 1.85902 12 1.85902C17.592 1.85902 22.141 6.40898 22.141 12C22.141 17.591 17.591 22.141 12 22.141ZM12.9295 11.6096L16.2757 14.1193C16.6866 14.427 16.7703 15.0098 16.4616 15.4197C16.2794 15.6651 16.0005 15.7925 15.717 15.7925C15.5228 15.7925 15.3276 15.732 15.1603 15.6066L11.4422 12.818C11.208 12.6433 11.0704 12.3672 11.0704 12.0744V6.4973C11.0704 5.98327 11.4859 5.56777 12 5.56777C12.514 5.56777 12.9295 5.98327 12.9295 6.4973V11.6096Z" fill="#252525"/>
</svg>
