<svg width="24" height="24" viewBox="0 0 24 24" fill="none" xmlns="http://www.w3.org/2000/svg">
<path fill-rule="evenodd" clip-rule="evenodd" d="M20.5652 8.30259L19.6993 7.43633C19.3992 7.15156 19.0487 7.00914 18.6486 7.00914C18.2403 7.00914 17.8939 7.15156 17.609 7.43633L11.9964 13.0492L6.38372 7.43649C6.09887 7.15172 5.75246 7.0093 5.34429 7.0093C4.944 7.0093 4.59359 7.15172 4.29345 7.43649L3.43884 8.30275C3.14622 8.59516 3 8.94558 3 9.35367C3 9.76937 3.14639 10.1158 3.4388 10.3929L10.9569 17.9111C11.2342 18.2035 11.5805 18.3499 11.9963 18.3499C12.4044 18.3499 12.7547 18.2036 13.0471 17.9111L20.5652 10.3929C20.8501 10.108 20.9926 9.7616 20.9926 9.35367C20.9927 8.95318 20.8501 8.60297 20.5652 8.30259Z" fill="#252525"/>
</svg>
