<svg width="24" height="24" viewBox="0 0 24 24" fill="none" xmlns="http://www.w3.org/2000/svg">
<path fill-rule="evenodd" clip-rule="evenodd" d="M23.228 17.28C23.1624 17.228 18.4 13.7952 17.0928 14.0416C16.4688 14.152 16.112 14.5776 15.396 15.4296C15.2808 15.5672 15.004 15.8968 14.7888 16.1312C14.3363 15.9836 13.8949 15.804 13.468 15.5936C11.2644 14.5208 9.48399 12.7404 8.4112 10.5368C8.20069 10.1099 8.02103 9.66854 7.8736 9.216C8.1088 9 8.4384 8.7232 8.5792 8.6048C9.4272 7.8928 9.8536 7.536 9.964 6.9104C10.1904 5.6144 6.76 0.8192 6.724 0.776C6.40882 0.32575 5.90808 0.0408701 5.36 0C3.9696 0 0 5.1496 0 6.0168C0 6.0672 0.0728002 11.1904 6.3904 17.6168C12.8104 23.9272 17.9328 24 17.9832 24C18.8512 24 24 20.0304 24 18.64C23.9596 18.0939 23.6762 17.5947 23.228 17.28Z" fill="#252525"/>
</svg>
